Coordinates
version=1
nRows=7
nColumns=63
inDegrees=yes

Units are S.I. units (second, meters, Newtons, ...)
If the header above contains a line with 'inDegrees', this indicates whether rotational values are in degrees (yes) or radians (no).

endheader
time	pelvis_tilt	pelvis_list	pelvis_rotation	pelvis_tx	pelvis_ty	pelvis_tz	hip_flexion_r	hip_adduction_r	hip_rotation_r	knee_angle_r	knee_angle_r_beta	ankle_angle_r	subtalar_angle_r	mtp_angle_r	hip_flexion_l	hip_adduction_l	hip_rotation_l	knee_angle_l	knee_angle_l_beta	ankle_angle_l	subtalar_angle_l	mtp_angle_l	L5_S1_Flex_Ext	L5_S1_Lat_Bending	L5_S1_axial_rotation	L4_L5_Flex_Ext	L4_L5_Lat_Bending	L4_L5_axial_rotation	L3_L4_Flex_Ext	L3_L4_Lat_Bending	L3_L4_axial_rotation	L2_L3_Flex_Ext	L2_L3_Lat_Bending	L2_L3_axial_rotation	L1_L2_Flex_Ext	L1_L2_Lat_Bending	L1_L2_axial_rotation	L1_T12_Flex_Ext	L1_T12_Lat_Bending	L1_T12_axial_rotation	Abs_r3	Abs_r2	Abs_r1	Abs_t1	Abs_t2	neck_flexion	neck_bending	neck_rotation	arm_flex_r	arm_add_r	arm_rot_r	elbow_flex_r	pro_sup_r	wrist_flex_r	wrist_dev_r	arm_flex_l	arm_add_l	arm_rot_l	elbow_flex_l	pro_sup_l	wrist_flex_l	wrist_dev_l
      0.00000000	     -1.80065165	     -7.03375351	     96.38093417	      0.29665759	      0.94619334	      0.61438681	     -7.15575109	      1.17994330	      0.42573031	      1.51140287	      0.02637896	     26.50364829	      1.10410569	      0.00000000	     -5.92144775	     -3.08865844	     15.14472735	      0.65850194	      0.01149303	     25.83528490	     -9.83839417	      0.00000000	     -0.15059136	     -0.07164475	      1.45549121	     -0.27966322	     -0.09528752	      1.54645941	     -0.24740655	     -0.17419705	      1.54645941	     -0.17211087	     -0.17419705	      1.27355481	     -0.13983914	     -0.14609798	      1.18258661	     -0.08604790	     -0.11097772	      1.09161840	     -1.07565903	     -0.81045977	      8.09500544	      0.00000000	      0.00000000	     13.84200112	     -1.68519801	    -11.73974595	    -11.44472759	    -11.52485261	     16.97526425	    102.26429936	     68.83215725	      9.45347456	     10.12056274	      4.94625227	    -19.50578078	     31.11329123	     99.28486882	     58.69562275	     10.66446262	     23.21250134
      0.02173913	     -2.08007615	     -7.33107470	     95.77309783	      0.29754862	      0.94512708	      0.61475642	     -7.14927601	      0.87623562	      1.24735351	      1.08319330	      0.01890529	     26.35150122	      0.39222744	      0.00000000	     -5.88367768	     -2.75650878	     17.01668268	      0.46342701	      0.00808833	     24.43796573	    -12.57606808	      0.00000000	     -0.12616275	     -0.10956107	      1.58211502	     -0.23429684	     -0.14571623	      1.68099721	     -0.20727278	     -0.26638680	      1.68099721	     -0.14419141	     -0.26638680	      1.38435064	     -0.11715473	     -0.22341694	      1.28546846	     -0.07208940	     -0.16971010	      1.18658627	     -0.90116791	     -1.23937678	      8.79924912	      0.00000000	      0.00000000	     13.93124182	     -1.88352911	    -11.99414863	    -11.82032039	    -10.41169682	     15.15695974	    102.76403822	     74.08791269	     12.30336462	     13.93215090	      4.30182940	    -20.18844179	     30.88576037	    100.13795491	     62.32782018	     15.10854876	     26.14430552
      0.04347826	     -2.48648303	     -7.40020039	     95.52872966	      0.29806005	      0.94471271	      0.61514852	     -7.30389400	      0.51285314	      2.63402446	      0.84472526	      0.01474324	     26.05197796	     -1.65697329	      0.00000000	     -5.91145692	     -2.33267673	     18.55955732	      0.45643465	      0.00796629	     23.31976577	    -14.60060893	      0.00000000	     -0.13322503	     -0.15350782	      1.60211138	     -0.24741221	     -0.20416540	      1.70224334	     -0.21887540	     -0.37323891	      1.70224334	     -0.15226289	     -0.37323891	      1.40184745	     -0.12371276	     -0.31303314	      1.30171549	     -0.07612478	     -0.23778361	      1.20158353	     -0.95161308	     -1.73651113	      8.91046284	      0.00000000	      0.00000000	     13.85531681	     -2.03564890	    -11.61719586	    -11.86702191	     -9.66504674	     14.45215403	    102.67848113	     76.49280664	     14.09132487	     14.60968216	      4.06928995	    -20.50600238	     30.26412059	     99.80039131	     64.02357591	     22.14439155	     26.63791085
      0.06521739	     -2.54040050	     -7.42332779	     95.34024629	      0.29825528	      0.94433300	      0.61542160	     -7.39336072	      0.47407794	      2.60442389	      0.74442171	      0.01299261	     26.04108470	     -1.70401443	      0.00000000	     -5.91512274	     -2.26909973	     18.64267752	      0.47062487	      0.00821395	     23.26884962	    -14.56608187	      0.00000000	     -0.13501131	     -0.15751334	      1.61596594	     -0.25072950	     -0.20949274	      1.71696381	     -0.22181008	     -0.38297793	      1.71696381	     -0.15430443	     -0.38297793	      1.41397020	     -0.12537150	     -0.32120120	      1.31297233	     -0.07714546	     -0.24398816	      1.21197445	     -0.96437228	     -1.78182239	      8.98751777	      0.00000000	      0.00000000	     13.93335845	     -2.09011489	    -11.54349262	    -11.91110809	     -9.51820531	     14.40151707	    102.78499329	     76.59542629	     14.14219095	     14.73632114	      3.86888464	    -20.89336726	     30.48748612	    100.19968792	     64.11608258	     22.38586477	     26.74269489
      0.08695652	     -3.05284127	     -7.50685307	     95.10114036	      0.29902858	      0.94397848	      0.61591126	     -7.42294261	     -0.04043268	      2.63565950	      0.64437588	      0.01124648	     26.30862817	     -1.51194077	      0.00000000	     -5.85877755	     -1.73694941	     18.30697142	      0.47431315	      0.00827833	     23.33408209	    -14.24139425	      0.00000000	     -0.14852175	     -0.22575448	      1.65545609	     -0.27581974	     -0.30025346	      1.75892210	     -0.24400639	     -0.54889944	      1.75892210	     -0.16974551	     -0.54889944	      1.44852408	     -0.13791730	     -0.46035853	      1.34505807	     -0.08486533	     -0.34969369	      1.24159207	     -1.06087602	     -2.55377982	      9.20715014	      0.00000000	      0.00000000	     14.42028542	     -1.66224077	    -11.53083005	    -12.05637743	     -8.73020391	     13.83986234	    102.95014669	     77.39554107	     14.48108826	     15.67013995	      4.23459732	    -21.33477329	     30.62705312	    100.45306419	     64.77751874	     23.25476827	     27.21111363
      0.10869565	     -3.07546689	     -7.53274794	     95.02537286	      0.29915608	      0.94381424	      0.61624162	     -7.44043111	     -0.05636749	      2.63711762	      0.61328427	      0.01070383	     26.27304173	     -1.52163283	      0.00000000	     -5.80749438	     -1.70212221	     18.30704982	      0.46266939	      0.00807510	     23.42093934	    -14.29097287	      0.00000000	     -0.14727035	     -0.22720818	      1.65352605	     -0.27349577	     -0.30218688	      1.75687143	     -0.24195046	     -0.55243398	      1.75687143	     -0.16831529	     -0.55243398	      1.44683530	     -0.13675525	     -0.46332293	      1.34348992	     -0.08415028	     -0.35194548	      1.24014454	     -1.05193740	     -2.57022441	      9.19641584	      0.00000000	      0.00000000	     14.44302225	     -1.65281595	    -11.52245796	    -12.08439803	     -8.65178375	     13.81711758	    103.05468340	     77.39114735	     14.49136011	     15.62471404	      4.35045207	    -21.28794665	     30.50475419	    100.46872178	     64.76070266	     23.24985389	     27.20299492
      0.13043478	     -3.18367537	     -7.57126398	     94.95297239	      0.29924377	      0.94352269	      0.61626434	     -7.47389878	     -0.16566598	      2.60307559	      0.55085956	      0.00961431	     26.01534061	     -1.62385500	      0.00000000	     -5.76269958	     -1.57116725	     18.41587432	      0.48152137	      0.00840413	     23.74422715	    -14.51566559	      0.00000000	     -0.14805391	     -0.24163357	      1.67435811	     -0.27495092	     -0.32137265	      1.77900549	     -0.24323777	     -0.58750787	      1.77900549	     -0.16921082	     -0.58750787	      1.46506334	     -0.13748286	     -0.49273918	      1.36041596	     -0.08459801	     -0.37429041	      1.25576858	     -1.05753429	     -2.73340731	      9.31227749	      0.00000000	      0.00000000	     14.94515335	     -1.40359264	    -11.51706644	    -12.38358255	     -8.32512016	     13.46861060	    103.19007911	     77.35137482	     14.39916192	     15.29088028	      4.27534930	    -21.02606080	     30.11096888	    100.46726762	     64.53074080	     23.08578720	     27.06617300
